<svg xmlns="http://www.w3.org/2000/svg" width="1366" height="650" viewBox="0 0 1366 650"><defs><clipPath id="a"><path d="M14205-2066h1366v650h-1366z" class="a"/></clipPath><clipPath id="b"><path d="M-.001.451h1366v911h-1366z" class="b"/></clipPath><style>.a{fill:#fffdf3}.b,.f{fill:none;stroke:#f8eac7}.c{fill:#fffdf6}.d{clip-path:url(#a)}.e{clip-path:url(#b)}.f{stroke-miterlimit:10}</style></defs><path d="M0 0h1366v650H0z" class="c"/><g class="d" transform="translate(-14205 2066)"><g transform="translate(13714.263 -2215.215)"><g class="e" transform="translate(490.738 58.764)"><g transform="translate(-124.893 -110.018)"><g transform="translate(342.428 532.645)"><path d="M81.385 48.061a231.021 231.021 0 0 0-39.864 29.161c-65.012 59.635-52.929 180.151 30.973 218.085 42.457 19.2 90.179 6.109 128.2-17.042 40.564-24.7 63.784-67.846 100.5-96.878 29.913-23.655 70.32-27.228 103.923-43.433 30.383-14.651 62.4-51.546 45.922-87.794C428.504.577 349.96.907 304.285.098c-72.366-1.277-157.377 9.723-222.9 47.963Z" class="f"/><path d="M412.259 60.539c-18.772-41.547-83.34-42.053-121.713-42.568q-3.6-.052-7.258-.047c-58.385.036-125.6 10.268-178.13 41.039a196.808 196.808 0 0 0-33.227 24.265C30.966 120.54 25.319 185.757 53.719 229.77a98.5 98.5 0 0 0 39.13 35.016c17.521 8.816 36.995 11.035 56.015 7.956s37.487-11.053 53.889-21.11c33.36-20.367 52.814-55.556 83.09-79.4 24.663-19.423 57.739-22.748 85.42-36.093 26.632-12.828 55.432-43.424 40.996-75.6Z" class="f"/><path d="M373.476 70.918c-14.917-33.549-65.589-34.849-96.674-35.077q-2.883-.027-5.8 0c-46.372.337-99.924 9.2-142.073 34.025a163.061 163.061 0 0 0-26.59 19.368c-33 29.746-38.9 80.727-18.4 116.14a79.458 79.458 0 0 0 29.261 28.895 71.01 71.01 0 0 0 46.272 8.55c16.054-2.4 31.524-9.312 45.33-17.82 26.122-16.1 41.845-43.262 65.684-61.916 19.412-15.191 45.157-18.27 66.917-28.755 22.885-11.008 48.556-35.341 36.073-63.41Z" class="f"/><path d="M334.694 81.295c-11.135-25.512-47.84-27.649-71.634-27.583q-2.159 0-4.345.046c-34.355.636-74.245 8.129-106.013 27.009a129.812 129.812 0 0 0-19.955 14.469c-25.034 22.179-31.264 59-18.581 85.742a59.813 59.813 0 0 0 19.386 22.77 51.282 51.282 0 0 0 36.53 9.146c13.087-1.712 25.57-7.552 36.771-14.529 18.911-11.784 30.877-30.97 48.279-44.435 14.16-10.958 32.573-13.792 48.413-21.414 19.138-9.187 41.62-27.233 31.149-51.221Z" class="f"/><path d="M295.912 91.674c-7.393-17.463-30.094-20.412-46.594-20.092-.958.02-1.92.047-2.89.091-22.34.938-48.568 7.06-69.954 20a99.268 99.268 0 0 0-13.32 9.576c-17.069 14.608-23.668 37.31-18.763 55.337a39.242 39.242 0 0 0 9.514 16.646 32.687 32.687 0 0 0 26.789 9.742c10.119-1.028 19.623-5.781 28.212-11.239 11.715-7.444 19.909-18.676 30.873-26.953 8.911-6.728 19.991-9.313 29.91-14.078 15.385-7.366 34.655-19.116 26.223-39.03Z" class="f"/><path d="M174.616 132.187a18.711 18.711 0 0 0-.359 10.521c2.11 6.837 9.9 10.68 17.049 10.337s13.708-3.963 19.651-7.949c8.231-5.518 15.929-11.95 24.874-16.209 11.638-5.54 27.594-10.944 21.3-26.834-3.91-9.871-13.252-13.629-22.987-12.464-21.72 2.608-53.355 20.753-59.528 42.598Z" class="f"/></g><g transform="translate(755.467 300.246)"><path d="M12.408 80.791c31.219-73.274 126.789-102.56 195.541-63.3 30.6 17.474 43.586 54.095 28.159 86.289-16.916 35.293-54.277 46.609-88.062 59.748-16.517 6.424-33.4 13.613-47.09 25.142-19.552 16.466-39.835 52.215-70.752 33.776-7.8-4.651-13.271-12.44-17.117-20.664-17.913-38.302-16.757-83.253-.679-120.991Z" class="f"/><path d="M35.036 75.508C60.568 19.174 134.06-3.962 188.13 25.354c24.561 13.316 35.306 41.6 24.355 67.6-12.678 30.108-45.541 40.212-73.507 51.277-13.241 5.211-26.843 10.911-37.9 20.057-15.337 12.682-30.658 39.331-55.02 26.332-6.683-3.567-11.487-9.962-14.442-17-13.201-31.439-10.218-68.017 3.42-98.112Z" class="f"/><path d="M57.663 70.22c19.725-39.416 71.3-56.423 110.644-37.008 18.539 9.148 27.153 29.2 20.552 48.921-8.377 25.032-36.787 33.858-58.952 42.8-9.958 4.019-20.283 8.213-28.714 14.97-11.111 8.909-21.689 26.672-39.287 18.889a22.387 22.387 0 0 1-11.769-13.338c-8.567-24.505-3.713-52.77 7.526-75.234Z" class="f"/><path d="M80.29 64.941c13.642-22.582 43.685-33.5 68.2-23.863 12.562 4.941 19.279 16.969 16.75 30.238-3.84 20.148-28.051 27.466-44.4 34.331-6.684 2.806-13.713 5.524-19.527 9.885-6.868 5.154-13.072 14.513-23.553 11.447a12.978 12.978 0 0 1-9.095-9.676c-4.123-17.49 2.678-37.548 11.625-52.362Z" class="f"/><path d="M102.92 59.657c-7.24 6.752-15.845 19.08-15.732 29.487.04 3.582 2.66 6.51 6.42 6.012 3.079-.406 5.258-2.518 7.821-4 3.252-1.884 6.921-3.225 10.339-4.8 10.509-4.841 31.77-10.529 29.844-25.858-.853-6.763-6.249-11.183-12.946-11.554-9.458-.527-19.005 4.424-25.746 10.713Z" class="f"/></g><path d="M722.864 447.763c-2.41 20.833-4.793 39.81-25.155 50.73-19.942 10.7-38.678 8.965-60.448 9.084a549.522 549.522 0 0 0-73.977 5.422c-58.449 8.273-119.048 23.172-167.774 58.012-55.075 39.378-87.031 107.953-75.67 175.781 8.329 49.737 43.567 91.247 90.642 109.647 46.106 18.02 99.485 10.607 141.492-14.509 36.126-21.6 60.164-57.187 90.031-85.894 32.468-31.207 79.415-41.551 118.2-62.381 19.438-10.437 38.035-23.652 49.939-42.63 14.9-23.746 11.01-51.943 16.785-78.178 5.518-25.065 21.336-45.835 41.3-61.454 37.924-29.664 87.195-39.813 125.554-68.395 12.206-9.095 22.753-21.077 27.556-35.523 18.964-57.046-24.109-103.029-75.336-120.619-57.839-19.86-123-2.738-167.694 38.075-36.108 32.978-49.947 75.322-55.445 122.832ZM513.045 1068.505c35.189-26.891 57.854-66.9 75.766-107.4s32.174-82.884 55.224-120.7 56.773-71.619 99.578-82.984c59.384-15.768 121.941 14.129 183.054 7.772 62.452-6.5 114.339-49.336 172.6-72.753a284.469 284.469 0 0 1 69.1-18.126c25.654-3.354 52.245-3.066 76.77 5.176s46.848 25.155 57.781 48.6c19.838 42.548-1.16 91.622-16.258 136.072-16.43 48.376-25.57 102.3-7.158 149.956 4.864 12.587 15.291 26.379 28.539 23.81" class="f"/><path d="M1203.585 73.932c-73.128-1.427-148.023 81.578-98.687 149.38 29.03 39.9 49.728 82.4 39.768 133.131-9.986 50.872-48.371 80.414-91.143 105.8-45.933 27.257-209.169 127.362-119.621 191.885 65.183 46.959 156.437-35.752 213.563-62.7 70.16-33.091 148.409-38.323 221.969-14.4 47.866 15.57 119.8 56.58 165.888 16.027" class="f"/><path d="M1329.665 1042.167c-29.159-44.825-15.323-94.825 1.237-142.742 10.332-29.891 24.3-52.878 29.385-84.309 7.052-43.619-9.088-76.5.772-129.839 10.911-59.036 91.56-65.693 128.108-38.693 20.274 14.977 31.129 49.03 46.755 68.81l18.5 23.413M107.788 514.054c45.705-24.974 108.909-10.917 139.719 31.077 34.264 46.7 26.195 110.484 28.629 168.355 1.689 40.174 9.47 80.758 28.663 116.09s50.748 65.039 89.328 76.367c17.911 5.258 36.776 6.5 54.82 11.276s36.164 14.041 45.23 30.356c6.8 12.228 7.654 26.918 6.265 40.837-5.473 54.9-46.3 104.617-99.091 120.659M68.777 433.057c57.773-14.794 115.951 8.7 167.978 31.957 30.037 13.425 65.281 28.66 99.022 24.185 33.342-4.424 62.763-25.348 95.819-31.54 44.947-8.419 90.13 3.564 134.926 7.025 49.141 3.795 90.582-10.465 105.3-61.674 6.808-23.681 11.2-47.791 19.536-71.058 22.442-62.638 78.153-98.355 143.277-103.724 51.4-4.238 111.961.293 154.664-33.991 37.388-30.017 54.344-82.308 34.193-127.075" class="f"/><g transform="translate(1012.575 221.071)"><path d="M.794 27.492c-3.509 16.162 5.182 32.371 14.961 45.705s21.323 26.311 24.819 42.475c1.521 7.034 1.416 14.327 2.689 21.411s4.276 14.345 10.29 18.3c7.4 4.866 17.65 3.339 25.034-1.552 15.9-10.529 19.5-32.347 18.337-51.378-1.928-31.648-13.22-68.52-35.044-92.4C43.854-9.674 6.445 1.472.794 27.492Z" class="f"/><path d="m23.68 39.888-.047.149c-3.363 10.933 3.542 23.934 9.769 33.145 5.974 8.834 12.574 17.454 15.109 27.712 1.1 4.464 1.39 9.062 2.387 13.564a30.1 30.1 0 0 0 2.009 6.121 14.17 14.17 0 0 0 4.489 5.757c4.8 3.409 11.771 2.044 16.344-1.57 9.441-7.464 11.837-20.835 11.163-32.908a108.335 108.335 0 0 0-10.882-41.209 79.594 79.594 0 0 0-11.647-17.315C50.866 20.47 28.77 23.27 23.68 39.888Z" class="f"/><path d="m46.566 52.282-.049.086c-3.265 5.8 1.864 15.621 4.531 20.8 3.625 7.042 5.626 14.067 8.512 21.343a7.227 7.227 0 0 0 1.678 2.784c2.181 1.977 5.936.805 7.654-1.587 6.706-9.352 4.032-22.3-.975-31.762-2.83-5.349-15.218-22.356-21.351-11.664Z" class="f"/></g><path d="M1224.56 86.709c-83.451 8.891-84.6 98.578-63.529 159.627 19.82 57.431 37.332 123.049-9.891 172.418-45.851 47.937-103.052 75.458-156.529 112.969-27.465 19.261-78.274 61.91-39.484 94.853 31.588 26.825 103.205-16.681 132.92-31.28 75.963-37.319 151.126-72.924 237.65-54.17 58.183 12.613 119.972 52.577 180.237 25.892" class="f"/><path d="M1011.23 597.566c-3.208.867-6.874 1.616-9.661-.2-2.173-1.414-3.21-4.046-3.738-6.586-4.381-21.072 16.661-38.081 35.517-48.458 52.6-28.944 110.006-50.675 155.5-90.866 57.751-51.016 112.079-116.521 189.168-138.347 70.124-19.853 137.66 20.926 148.615 94.251 3.5 23.4.561 49.549-9.716 70.962-7.628 15.889-20.09 29.766-36.027 37.288-52.35 24.712-115.63-11.6-169.17-14.273-69.409-3.465-139.34 10.538-199.187 46.691-33.018 19.947-63.361 39.267-101.301 49.538Z" class="f"/><g transform="translate(1180.467 54.952)"><path d="M.883 126.675c-4.526 34.7 8.613 76.941 33.325 101.99 22.407 22.71 56.391 28.217 86.007 17.67 22.287-7.938 41.418-22.633 60.143-37.1 22.072-17.047 41.01-33.245 69.732-37.669 27.782-4.278 49.5-2.92 67.052-28.3 28.9-41.788 20.3-98.632-25.094-124.578C267.514 4.667 235.694-.587 203.662.048s-64.281 7.16-89.67 16.7C57.522 37.975 7.985 72.226.883 126.675Z" class="f"/><path d="M276.531 30.926c-19.625-12.533-45.419-18.6-72.8-18.514a224.182 224.182 0 0 0-35.228 3.021 219.813 219.813 0 0 0-41.039 10.78c-31.536 11.844-60.69 28.68-78.967 51.989a88.818 88.818 0 0 0-18.21 40.89c-4.777 29.345 5.118 64.62 24.479 86.67 18.026 20.531 46.51 25.628 72.253 16.754a118.777 118.777 0 0 0 18.847-8.572c11.594-6.468 22.451-14.535 33.127-22.544 19.465-14.513 36.23-28.452 59.9-32.347 22.952-3.8 41-3.263 55.631-24.218 24.22-34.66 17.736-81.092-17.993-103.909Z" class="f"/><path d="M261.013 43.16c-14.761-11.1-34.483-17.914-57.219-18.384a167.806 167.806 0 0 0-29.035 2.09 175.748 175.748 0 0 0-33.829 8.803c-25.729 9.652-49.724 23.591-65.263 42.708a77.566 77.566 0 0 0-15.981 33.125c-5.039 23.99 1.592 52.4 15.63 71.352 13.647 18.43 36.634 23.039 58.5 15.839a103.1 103.1 0 0 0 15.827-6.91c9.731-5.207 18.926-11.757 27.977-18.23 16.82-12.032 31.451-23.655 50.06-27.022 18.124-3.321 32.508-3.607 44.211-20.135 19.558-27.527 15.149-63.66-10.878-83.236Z" class="f"/><path d="M245.496 55.396a62.948 62.948 0 0 0-41.635-18.259 113.725 113.725 0 0 0-22.845 1.161 130.335 130.335 0 0 0-26.619 6.837c-19.918 7.462-38.756 18.5-51.559 33.426a67.566 67.566 0 0 0-13.751 25.364c-5.327 18.64-2.019 40.325 6.783 56.032 9.228 16.468 26.771 20.5 44.749 14.923a85.884 85.884 0 0 0 12.8-5.247c7.869-3.948 15.42-8.954 22.83-13.915 14.2-9.51 26.676-18.831 40.221-21.7 13.3-2.815 24.012-3.95 32.792-16.049 14.891-20.402 12.559-46.515-3.766-62.573Z" class="f"/><path d="M229.979 67.632c-5.141-8.865-12.6-16.462-26.053-18.131a67.179 67.179 0 0 0-16.65.231 87.536 87.536 0 0 0-19.41 4.864c-14.11 5.271-27.814 13.393-37.856 24.145a59.33 59.33 0 0 0-13.588 58.313c4.587 14.715 16.89 17.907 31 14.008a70.929 70.929 0 0 0 9.781-3.584 169.77 169.77 0 0 0 17.683-9.6c11.6-6.969 21.9-14.034 30.385-16.373s15.5-4.307 21.37-11.966c10.188-13.299 10.223-30.038 3.338-41.907Z" class="f"/><path d="M136.977 114.151c-1.055 15.75 10.718 15.754 24 11.172s28.086-13.748 33.083-16.339c10.534-5.46 18.909-18.159 20.4-29.119s-3.911-20.186-20.928-18.7c-11.616 1.013-25.33 7.929-36.354 17.758s-19.352 22.566-20.201 35.228Z" class="f"/></g><g transform="translate(1277.62 332.005)"><path d="M60.867 26.931C38.374 44.08 22.16 65.505 8.208 89.755.166 103.734-5.25 122.864 8.086 135.71c15.59 15.014 42.967 12.536 62.911 15.236 29.218 3.954 58.854 9.2 88.352 4.932 20.8-3.006 37.268-12.808 47.622-27.131s14.59-33.171 10.92-54.27c-7.169-41.223-42.628-75.741-85.648-74.44-26.31.793-50.769 11.182-71.376 26.894Z" class="f"/><path d="M77.703 39.528C60.32 52.259 47.668 68.707 37.569 87.15c-5.495 10.037-9.208 23.416-.221 32.739 10.784 11.188 30.061 10.425 44.6 12.715 5.608.869 11.254 1.762 16.9 2.547 15.621 2.175 31.387 3.642 47.084 1.5 14.956-2.053 26.745-9 34.944-18.7a53.746 53.746 0 0 0 12.265-41.759c-3.76-29.917-28.565-55.157-60.276-55.531-19.915-.237-39.038 7.091-55.162 18.867Z" class="f"/><path d="M94.539 52.129a82.677 82.677 0 0 0-27.607 32.417c-2.98 6.074-4.975 13.759-.321 19.525 5.97 7.395 17.147 8.342 26.3 10.193 3.449.7 6.943 1.332 10.421 1.871 9.66 1.5 19.459 2.443 29.2 1.288a40.274 40.274 0 0 0 22.263-10.272c7.865-7.005 13.986-17.466 13.609-29.252-.592-18.527-14.517-34.654-34.9-36.618-13.557-1.306-27.323 3.012-38.965 10.848Z" class="f"/><path d="M96.294 81.941a12.367 12.367 0 0 0-.417 6.309c1.232 5.079 6.827 7.719 11.926 8.867 6.9 1.55 14.263 1.651 20.906-.765 7.224-2.627 13.128-9.6 14.954-16.741s-.432-14.437-9.532-17.709c-7.156-2.572-15.6-1.073-22.757 2.824S98.332 74.92 96.294 81.941Z" class="f"/></g><path d="M1508.011 216.944c-11.753 16.47-33.4 21.83-53.166 26.151-32.151 7.029-66.086 15.413-89.175 38.864l-.117.12a8.407 8.407 0 0 0 6.741 14.207c10.62-.933 21.218-3.237 31.885-3.994 37.512-2.654 73.438 13.781 107.447 29.831" class="f"/><path d="M1502.538 237.879c-9.537 8.545-22.287 12.507-34.827 15.1s-25.417 4.092-37.348 8.743c-4.365 1.7-9.108 4.515-9.76 9.155-.572 4.066 2.456 7.938 6.144 9.745s7.916 2.033 12.01 2.343a219.338 219.338 0 0 1 67.382 16.071" class="f"/><path d="m1497.475 260.653-23.021 5.728c-1.417.352-2.959.787-3.795 1.984-1.133 1.623-.394 4 1.089 5.311a12.316 12.316 0 0 0 5.409 2.286l21.119 5.132M1239.606 328.518c-9.293-3.649-16.646-14.305-26.444-12.392-6.058 1.182-10.164 7.149-11.474 13.179s-.486 12.287-.385 18.456c.3 17.676-5.369 34.871-11.6 51.413-1.108 2.94-2.255 5.985-2.071 9.124s2.09 6.409 5.151 7.124c3.769.88 7.213-2.261 9.608-5.3 7.384-9.366 12.56-20.432 20.8-29.053 8.612-9.011 20.019-14.775 31.433-19.784 8.912-3.913 26.993-11.073 20.756-23.907-6.217-12.788-25.194-4.704-35.774-8.86ZM81.668 378.92c47.454-13.655 94.6 10.468 136.423 30.341 34.3 16.3 71.823 29.87 110.309 29.33 35.885-.5 67.721-17.282 101.943-25.719 44.576-10.99 89.488 8.811 134.325 5.471 50.007-3.724 73.96-37.984 87.548-83 14.808-49.067 37.031-94.322 85.9-116.343 56.008-25.237 119.671-19.886 177.046-40.152 40.194-14.2 97.375-55.753 69.034-105.415" class="f"/><g transform="translate(35.041)"><path d="M149.962 354.594c5.1 1.618 10.15 3.288 15.118 5.067 44.78 16.025 86.462 36.966 135.651 32.42 38.011-3.514 72.665-20.634 110.535-23.97 41.693-3.671 80.465 7.9 120.318-10.024 32.9-14.794 60.247-42.029 71.011-76.923 13.432-43.544-6.978-77.963-34.033-110.7-29.318-35.477-46.52-84.223-81.23-114.918-34.869-30.837-86.268-41.361-130.732-48.22a637.548 637.548 0 0 0-174.639-2.498C116.875 13.054 30.168 24.746 9.701 99.279c-10.791 39.292-12.157 83.87-6.189 124.026 12.548 84.404 73.769 108.228 146.45 131.289Z" class="f"/><path d="M51.646 113.931c-9.1 33.293-10.177 70.995-5.021 104.978 10.758 71.191 62.463 91.656 123.74 111.538q6.567 2.132 12.983 4.458c38.469 13.994 74.553 31.682 116.864 28.039 32.171-2.871 61.545-17.095 93.6-19.84 35.279-3.024 68.041 6.451 101.87-8.282 28.607-12.462 52.648-35.361 62.579-65.026 12.467-37.066-3.658-66.921-26.058-95.386-24.279-30.859-39.484-72.618-70.339-99.177-30.041-25.86-74.021-35.1-112.511-40.983a548 548 0 0 0-150.062-2.046c-56.296 7.195-130.239 17.825-147.645 81.727Z" class="f"/><path d="M93.591 128.583c-7.408 27.292-8.2 58.118-3.851 85.928 8.967 57.981 51.147 75.1 101.03 91.791a336.782 336.782 0 0 1 10.846 3.846c32.156 11.964 62.654 26.532 98.075 23.661 26.339-2.133 50.426-13.557 76.666-15.714 28.864-2.376 55.631 5.027 83.42-6.541 24.322-10.122 45.048-28.691 54.146-53.127 11.5-30.587-.337-55.879-18.084-80.069-19.226-26.242-32.426-61.018-59.44-83.436-25.187-20.9-61.776-28.84-94.291-33.75a458.388 458.388 0 0 0-125.488-1.593c-47.505 6.166-108.683 15.732-123.029 69.004Z" class="f"/><path d="M135.536 143.237c-5.715 21.29-6.218 45.239-2.684 66.879 7.178 44.769 39.832 58.569 78.32 72.042 2.935 1.026 5.834 2.128 8.709 3.234 25.847 9.935 50.75 21.307 79.288 19.283 20.5-1.454 39.307-10.018 59.732-11.585 22.449-1.727 43.242 3.631 64.973-4.8 20.05-7.779 37.39-22.046 45.711-41.231 10.47-24.138 2.984-44.836-10.108-64.751-14.181-21.626-25.346-49.429-48.545-67.7-20.3-15.981-49.533-22.582-76.07-26.517a368.932 368.932 0 0 0-100.914-1.136c-38.713 5.134-87.128 13.639-98.412 56.282Z" class="f"/><path d="M177.482 157.888c-3.981 15.3-4.2 32.356-1.516 47.831 5.467 31.544 28.5 42.089 55.609 52.291 2.215.834 4.394 1.742 6.573 2.623 19.534 7.905 38.839 16.073 60.5 14.9 14.661-.791 28.188-6.48 42.8-7.459 16.034-1.079 30.89 2.3 46.523-3.057 15.807-5.413 29.784-15.387 37.277-29.334 9.5-17.67 6.307-33.792-2.132-49.433-9.137-17.009-18.215-37.871-37.651-51.956-15.342-11.119-37.288-16.324-57.852-19.284a279.372 279.372 0 0 0-76.336-.685c-29.92 4.109-65.478 11.577-73.795 43.563Z" class="f"/><path d="M219.428 172.544a67.185 67.185 0 0 0-.348 28.782c3.682 18.33 17.144 25.725 32.9 32.544 1.492.645 2.955 1.354 4.436 2.011 13.223 5.874 26.92 10.8 41.71 10.527 8.816-.164 17.069-2.942 25.865-3.33 9.619-.432 18.612 1.1 28.077-1.315 11.623-2.97 22.194-8.725 28.844-17.437 8.546-11.2 9.627-22.75 5.843-34.116-4.09-12.392-10.977-26.419-26.758-36.215-10.275-6.38-25.042-10.064-39.629-12.052a189.886 189.886 0 0 0-51.761-.231c-21.132 3.067-43.922 9.471-49.179 30.832Z" class="f"/><path d="M261.373 187.191c-1.7 8.7 3.637 17.614 11.011 22.527s16.415 6.571 25.222 7.55q9.248 1.025 18.559 1.224c28.514.6 50.719-32.181 18.366-44.814-17.597-6.872-68.153-12.102-73.158 13.513Z" class="f"/></g><path d="M612.034 86.163q16.768 31.066 33.533 62.135c8.767 16.242 19.365 34 37.168 38.86 15.559 4.25 31.664-2.771 46.755-8.459a302.089 302.089 0 0 1 67.7-16.885c24.679-3.19 50.194-3.427 73.354-12.529s44.047-30.221 43.14-55.088" class="f"/><path d="M662.035 92.57q8.723 10.609 17.448 21.216c6.834 8.31 14.006 16.887 23.775 21.394 9.838 4.538 21.128 4.394 31.943 3.753 17.317-1.026 34.555-3.1 51.721-5.595 15.061-2.188 30.378-4.8 43.842-11.895s24.988-19.493 27.257-34.543M862.512 581.842c-3.813 18-4.341 36.63-9.06 54.414a119.653 119.653 0 0 1-40.433 62.126c-6.355 5.1-14.072 11.485-12.505 19.481 1.754 8.965 13.307 11.3 22.436 11.685q40.027 1.686 80.058 3.37c13.383.565 27.559.949 39.245-5.6 7.244-4.059 13.367-11.813 12.1-20.019-2.022-13.139-18.813-16.477-31.054-21.664-21.928-9.293-35.382-32.952-37.74-56.651s4.771-47.383 14.473-69.134c6.694-15.009 5.958-31.97-12.953-22.755-14.383 7.016-21.576 30.63-24.567 44.747ZM1257.987 594.384c25.965.235 52.787 2.695 75.633 15.038 9.443 5.1 19.06 14.611 16.191 24.954-2.421 8.723-12.474 12.915-17.138 20.674-5.4 8.982-4.587 23.471-14.63 26.479-5.675 1.7-11.458-1.789-16.477-4.943a232.206 232.206 0 0 0-84.44-31.985 236.326 236.326 0 0 0-48.741-3.177c-10.164.4-37.927 9.831-46.022 6.5-20.553-8.457 34.131-34.348 45.4-39.05 28.284-11.812 59.833-14.764 90.224-14.49Z" class="f"/><g transform="translate(568.083 710.51)"><path d="M44.178 280.127c33.548-59.034 43.565-133.82 94.939-178.217a134.883 134.883 0 0 1 90.715-32.431c20.4.528 40.354 5.712 60.5 9a329.739 329.739 0 0 0 189.179-25.5c34.164-15.659 65.853-37.281 101.972-47.667s79.882-6.732 104.457 21.7c21.582 24.969 22.56 62.005 14.95 94.118s-22.5 62.22-29.137 94.548a191.741 191.741 0 0 0-.924 72.148c2.742 15.32 7.366 30.414 7.794 45.971.785 28.481-12.952 56.108-33.076 76.276s-46.157 33.542-73.02 43.038c-88.547 31.3-185.357 22.746-279.245 20.471-79.437-1.924-164.057-.421-231.345-42.686C39.572 416.849 3.654 391.334.265 362.662c-3.563-30.133 30.207-58.414 43.913-82.535Z" class="f"/><path d="M166.737 124.653c23.028-20.241 53.224-30.932 83.739-30.575 18.813.233 37.392 4.372 56.1 7.187 54.356 8.18 111.068 1.386 161.15-20.516 18.173-7.925 35.55-17.769 53.441-26.264a207.762 207.762 0 0 1 33.748-12.964c30.717-8.384 67-4.628 88.266 20.1 17.967 20.842 19.589 51.785 14.079 78.947-5.469 26.96-16.987 52.422-22.035 79.659a176.916 176.916 0 0 0-.53 60.807c2.134 12.95 5.69 25.679 5.788 38.718.178 23.872-11.507 46.957-28.951 63.523-17.993 17.087-41.183 27.494-64.755 34.442q-5.042 1.489-10.11 2.775c-27.224 6.925-55.006 9.7-83.325 10.711-49.345 1.734-100.318-1.829-150.26-2.323-67.941-.913-140.559 2.031-198-34.357-18.359-11.571-47.518-32.395-50.555-55.8-3.179-24.575 23.609-47.735 34.51-67.6 26.678-48.693 35.802-109.643 77.7-146.47Z" class="f"/><path d="M194.356 147.395c21.192-19.015 48.578-28.576 76.765-28.715 17.22-.062 34.424 3.048 51.71 5.375 44.968 6.056 91.655 1.37 133.12-15.531 15.127-6.127 29.614-13.788 44.432-20.569a168.876 168.876 0 0 1 27.977-10.221c25.315-6.384 54.122-2.523 72.071 18.5 14.353 16.718 16.612 41.559 13.209 63.78-3.338 21.8-11.478 42.621-14.932 64.769a167.182 167.182 0 0 0-.138 49.467c1.527 10.576 4.017 20.942 3.782 31.464-.426 19.261-10.091 37.786-24.825 50.77-15.883 14-36.21 21.445-56.489 25.847q-4.337.943-8.674 1.7c-23.3 4.1-46.766 4.516-70.831 4.045-41.99-.864-85.8-4.128-128.638-3.892-56.445.31-116.982 4.356-164.657-26.031-14.326-9.131-36.751-25.224-39.436-43.368-2.795-19.024 17.011-37.06 25.105-52.679 19.797-38.338 27.948-85.55 60.449-114.711Z" class="f"/><path d="M221.976 170.134c19.337-17.814 43.933-26.222 69.789-26.853 15.63-.359 31.449 1.751 47.318 3.562 35.556 4.056 72.239 1.35 105.091-10.55 12.079-4.327 23.666-9.836 35.423-14.874a126.128 126.128 0 0 1 22.2-7.477c19.906-4.422 41.2-.386 55.879 16.9 10.709 12.615 13.615 31.316 12.338 48.609-1.228 16.624-5.969 32.821-7.831 49.881a175.547 175.547 0 0 0 .253 38.128c.94 8.2 2.343 16.205 1.778 24.209-1.033 14.651-8.721 28.58-20.7 38.015-13.812 10.882-31.236 15.4-48.223 17.253q-3.629.4-7.239.632c-19.375 1.275-38.523-.67-58.334-2.622-34.637-3.46-71.288-6.546-107.02-5.462-44.942 1.363-93.453 6.763-131.311-17.7-10.312-6.662-25.987-18.055-28.321-30.933-2.41-13.473 10.414-26.388 15.7-37.756 12.929-27.989 20.009-61.585 43.21-82.962Z" class="f"/><path d="M249.595 192.879c17.422-16.685 39.285-23.866 62.814-24.992 14.038-.654 28.465.519 42.923 1.749 26.122 2.219 52.809 1.279 77.062-5.568 9.027-2.547 17.734-5.85 26.415-9.179a85.446 85.446 0 0 1 16.431-4.733c14.506-2.419 28.321 1.72 39.684 15.3 7.1 8.484 10.569 21.055 11.469 33.44.831 11.432-.488 23.019-.731 34.991-.18 8.978.151 18.111.647 26.787.333 5.832.669 11.471-.228 16.956a37.3 37.3 0 0 1-16.572 25.262c-11.817 7.7-26.266 9.348-39.959 8.658q-2.924-.145-5.8-.439c-15.45-1.55-30.28-5.857-45.838-9.288-27.283-6.058-56.768-9.027-85.4-7.032-33.438 2.332-69.943 9.2-97.967-9.374-6.307-4.181-15.236-10.882-17.2-18.5-2.044-7.918 3.833-15.708 6.3-22.832 6.087-17.625 11.91-37.763 25.95-51.206Z" class="f"/><path d="M371.581 192.426c-35.288-1.283-70.373-2.106-94.369 23.2-5.052 5.327-9.539 12.159-8.714 19.456.645 5.708 4.518 10.638 9.195 13.976 18.051 12.888 42.665 4.177 64.624 1.047a118.946 118.946 0 0 1 63.776 8.6c11.307 4.912 21.821 11.578 33.344 15.954s24.7 6.293 36.062 1.447c28.137-12.019 9.989-59.557-3.328-76.03-10.793-13.351-18.6-16.287-34.151-11.715-20.201 5.94-43.363 4.903-66.439 4.065Z" class="f"/></g><g transform="translate(0 538.136)"><path d="M212.426 24.233q1.041 1.025 2.064 2.1c43.834 46.141 42.309 111.453 41.872 170.86-.3 40.041 3.77 83.744 22.69 120.564 28.031 54.549 81.946 66.451 131.124 94.522 53.357 30.458 23.34 79.014-12.4 109.686-62.64 53.76-157.187 77.878-238.681 68.347-42.056-4.917-80-25.271-105-59.9C10.734 470.325 1.595 380.973.124 309.028A621.08 621.08 0 0 1 39.365 78.107c14.436-38.336 28.529-56.505 66.092-69.934 36.499-13.05 78.069-12.367 106.969 16.06Z" class="f"/><path d="M54.213 125.441C68.189 94.096 79.92 78.679 111.13 68.078c30.848-10.476 65.361-8.74 89.419 15.6q.864.872 1.713 1.787c36.224 38.939 35.716 94 35.958 144.093.239 34.089 3.892 70.955 19.52 101.635 21.141 41.508 59.925 54.408 97.1 74.775q5.348 2.935 10.634 6.111c43.313 25.994 19.713 66.219-9.093 92.5-23.072 21.046-52.4 37.316-83.862 46.543-38.352 11.246-78.288 12.092-114.843 6.371-33.814-5.293-64.505-21.852-84.788-50.362-35.227-49.573-42.179-122.535-45.378-181.273-3.664-67.264-2.411-135.112 26.703-200.417Z" class="f"/><path d="M69.061 172.775c13.181-24.4 22.894-37.006 47.744-44.791 25.2-7.9 52.652-5.116 71.865 15.136.457.481.911.969 1.361 1.472 28.616 31.741 29.026 76.549 30.048 117.328.705 28.139 4.012 58.163 16.348 82.707 16.7 33.236 47.139 44.774 76.07 62.062a288.837 288.837 0 0 1 8.277 5.185c33.267 21.511 16.093 53.454-5.792 75.307a150.634 150.634 0 0 1-67.7 38.828c-31.517 8.085-62.6 4.9-91.031-1.348-25.528-5.608-49.006-18.432-64.582-40.819C64.576 444.801 59.6 388.163 54.887 342.7c-5.818-56.15-16.756-112.671 14.174-169.925Z" class="f"/><path d="M83.909 220.109c11.937-17.572 20.1-27.22 38.569-32.218 19.572-5.294 39.9-1.456 54.315 14.675.337.377.674.763 1.008 1.155 20.95 24.593 22.409 59.1 24.138 90.563 1.219 22.189 4.132 45.372 13.176 63.778 12.261 24.967 34.353 35.14 55.04 49.349 1.99 1.375 3.944 2.818 5.917 4.261 23.232 16.985 12.5 40.746-2.489 58.118-12.739 14.766-31.3 27.071-51.535 31.114-24.679 4.925-46.766-2.192-67.221-9.067-17.169-5.772-33.508-15.012-44.373-31.278-18.958-28.516-22.362-68.894-28.186-101.021-8.197-45.224-31.786-90.213 1.641-139.429Z" class="f"/><path d="M98.757 267.443c10.142-11.046 17.33-17.368 29.4-19.645 13.97-2.638 27.2 2.166 36.762 14.212.22.277.439.556.656.84 13.341 17.39 15.828 41.653 18.228 63.8 1.758 16.24 4.25 32.58 10 44.851 7.821 16.7 21.591 25.479 34.009 36.636 1.2 1.08 2.367 2.219 3.562 3.336 13.234 12.354 8.984 28.159.813 40.928-7.512 11.74-20.749 21.948-35.372 23.4-17.843 1.764-30.693-8.874-43.41-16.787-8.765-5.453-18.01-11.594-24.165-21.736-10.824-17.993-13.455-42.12-19.591-60.9-11.264-34.479-48.1-68.406-10.892-108.935Z" class="f"/><path d="M172.49 384.933c3.381 8.426 8.781 15.872 12.979 23.923s7.233 17.277 5.318 26.153-10.2 16.823-19.208 15.681c-11.008-1.4-16.353-13.9-19.6-24.506-3.554-11.616-7.291-23.544-14.956-32.97-17.8-21.893-66.884-50.008-23.42-78.437 46.695-30.538 49.195 46.007 58.887 70.156Z" class="f"/></g><g transform="translate(1345.479 660.483)"><path d="M68.599 8.045c-12.156 8.364-19.658 22.4-23.039 36.82-12.066 51.492 9.636 105.583-8.929 156.55C21.537 242.853-.952 286.986.031 332.132c1.317 60.7 64.8 72.957 115.058 62.858 35.173-7.067 60.219-32.987 70.833-66.737 22.21-70.617 10.512-154.174-6.283-224.928-8.439-35.547-30.4-88.915-68.75-100.966-13.484-4.238-28.86-2.828-40.814 4.715q-.747.473-1.476.971Z" class="f"/><path d="M115.161 40.605c-10.958-2.767-23.163-1.459-32.794 4.815q-.6.385-1.177.8c-9.719 6.847-15.9 18.08-18.948 29.684-10.866 41.409 4.314 85.8-10.813 126.017-6.719 17.865-14.874 36.341-20.323 55.3a147.088 147.088 0 0 0-5.143 56c4.957 45.78 51.828 54.731 90.969 46.292 27.319-5.863 46.711-26.133 55.649-52.158 19.578-57.012 12.775-124.76.282-183.058-6.493-30.304-24.364-75.273-57.702-83.692Z" class="f"/><path d="M119.432 78.851c-8.388-1.376-17.455-.08-24.774 4.912-.3.2-.59.41-.88.621-7.286 5.331-12.145 13.766-14.857 22.547-9.665 31.327-1.086 65.986-12.7 95.484-5.908 15.014-12.808 30.578-16.319 46.633s-1.47 32 1.991 45.253c7.953 30.463 38.857 36.5 66.879 29.724 19.467-4.66 33.28-19.272 40.464-37.581 17.042-43.428 15.111-95.371 6.848-141.184-4.515-25.067-18.19-61.743-46.652-66.409Z" class="f"/><path d="M123.707 117.096a26.774 26.774 0 0 0-16.757 5.012c-.2.146-.392.3-.583.446-4.848 3.813-8.386 9.448-10.765 15.411-8.464 21.243-6.613 46.13-14.581 64.951-5.141 12.146-10.743 24.814-12.316 37.97s1.594 26.767 9.126 34.5c5.118 16.524 25.874 18.237 42.79 13.156 11.605-3.483 20.019-12.372 25.28-23 14.77-29.844 17.579-66.017 13.414-99.312-2.483-19.855-11.851-48.586-35.608-49.134Z" class="f"/><path d="M95.815 203.417c-4.56 9.193-8.677 19.049-8.312 29.3s6.38 20.962 16.259 23.746c10.534 2.968 21.465-3.713 28.8-11.837 13.908-15.409 20.341-36.683 19.98-57.44-.257-14.648-5.675-36.8-24.562-31.852-16.447 4.318-25.617 34.871-32.165 48.083Z" class="f"/></g><path d="M860.751 669.663c-.468 3.7-.215 7.464-.76 11.152a26.268 26.268 0 0 1-8.946 16.062c-2.793 2.359-6.111 4.158-8.388 7.018s-3.141 7.379-.614 10.018a8.824 8.824 0 0 0 5.25 2.239c6.468.916 12.972-.825 19.428-1.815a84.775 84.775 0 0 1 18.468-.793c6.322.421 14.027.946 17.543-4.323 3.636-5.451-.355-12.875-5.369-17.095-4.309-3.627-9.8-6.424-12.966-11.234-3.2-4.864-3.083-10.946-5.651-16.083-5.495-10.989-16.56-6.48-17.995 4.854ZM515.384 878.477c-7.923 3.613-16.639 10.352-15.049 18.913 1.623 8.741 12.349 11.726 19.2 17.4 6.154 5.094 9.426 13.015 10.476 20.935s.108 15.954-.856 23.887c-.536 4.4-1.073 8.9-.071 13.214s3.875 8.472 8.12 9.731c4.742 1.406 9.834-1.106 13.422-4.511 8.727-8.286 11.228-20.957 14.355-32.579a200.932 200.932 0 0 1 30.1-63.915c4.012-5.65 8.457-11.425 9.415-18.286 3.788-27.106-25.63-7.976-35.466-3.881-17.547 7.299-36.329 11.196-53.646 19.092Z" class="f"/><path d="M537.684 889.054c-2.7 2.472-4.13 6.646-2.492 9.918 1.565 3.123 5.261 4.507 7.563 7.134 2.78 3.174 3.2 7.743 3.115 11.962a19.337 19.337 0 0 0 .362 5.584 5.563 5.563 0 0 0 3.558 4.021c2.578.711 5.223-1.35 6.287-3.8s1.024-5.216 1.326-7.872c.924-8.127 13.709-23.484 9.065-30.558-4.545-6.925-23.88-.883-28.784 3.611ZM287.472 541.389c8.661 17.971 11.188 38.194 13.394 58.021.394 3.538.805 7.165 2.4 10.346s4.664 5.875 8.222 5.992c3.356.109 6.347-2.006 8.905-4.183 15.646-13.318 25.561-32.074 39.422-47.243 19.093-20.9 45.153-34.335 72.08-43.056s55.026-13.1 82.795-18.583c2.886-.57 5.879-1.2 8.22-2.979s3.813-5.067 2.593-7.743c-1.051-2.3-3.64-3.421-6.025-4.274a145.878 145.878 0 0 0-90.955-2.117c-19.523 5.967-37.576 15.992-56.9 22.582-23.205 7.916-49.014 10.651-72.142 2.512-5.613-1.977-42.429-21.729-40.567-5.262.577 5.1 11.968 12.028 15.415 16.016a91.1 91.1 0 0 1 13.143 19.971Z" class="f"/><path d="M314.888 568.469q.249 1.571.465 3.154c.982 7.2 6.386 12.737 13.593 8.557 12.072-7 12.177-24.46 21.272-34.064 3.2-3.38 12.223-7.249 6.861-13.252-2.256-2.525-5.987-3.123-9.366-2.906-6.794.435-15.143 3.522-21.846 2.3-7.165-1.3-21.274-10.352-18.306 2.647 2.572 11.275 5.538 22.221 7.327 33.564Z" class="f"/></g></g></g></g></svg>