<?xml version="1.0" encoding="UTF-8" standalone="no"?><svg xmlns="http://www.w3.org/2000/svg" xmlns:xlink="http://www.w3.org/1999/xlink" clip-rule="evenodd" fill="#000000" fill-rule="evenodd" height="82.8" image-rendering="optimizeQuality" preserveAspectRatio="xMidYMid meet" shape-rendering="geometricPrecision" text-rendering="geometricPrecision" version="1" viewBox="0.0 0.0 314.7 82.8" width="314.7" zoomAndPan="magnify"><g><g><g id="change1_1"><path d="M276.17 0l-234.77 0c-22.77,0 -41.4,18.63 -41.4,41.4l0 0c0,22.77 18.63,41.4 41.4,41.4l234.76 0 0.01 -82.8z" fill="#ffffff"/></g><g id="change2_1"><path d="M276.17 2.86c21.29,0 38.55,17.25 38.55,38.54 0,21.29 -17.26,38.55 -38.55,38.55 -21.29,0 -38.54,-17.26 -38.54,-38.55 0,-21.29 17.25,-38.54 38.54,-38.54z" fill="#0160aa"/></g><g id="change2_2"><path d="M47.63 50.85l0 -3.75 -9.42 0 0 -15.15 -4.16 0 0 18.9 13.58 0zm17.5 0l0 -3.7 -10.26 0 0 -3.97 8.91 0 0 -3.7 -8.91 0 0 -3.83 10.13 0 0 -3.7 -14.24 0 0 18.9 14.37 0zm22.15 0l-8.1 -19.04 -3.84 0 -8.1 19.04 4.24 0 1.73 -4.24 7.99 0 1.73 4.24 4.35 0zm-7.56 -7.91l-5.03 0 2.51 -6.13 2.52 6.13zm26.81 7.91l-4.61 -6.75c1.2,-0.45 2.18,-1.15 2.93,-2.12 0.74,-0.96 1.12,-2.21 1.12,-3.74l0 -0.05c0,-1.96 -0.63,-3.5 -1.88,-4.59 -1.25,-1.1 -3,-1.65 -5.25,-1.65l-8.65 0 0 18.9 4.16 0 0 -6.05 3.27 0 4.05 6.05 4.86 0zm-4.78 -12.39c0,0.81 -0.27,1.46 -0.82,1.94 -0.55,0.49 -1.34,0.73 -2.36,0.73l-4.22 0 0 -5.43 4.14 0c1.02,0 1.82,0.23 2.4,0.68 0.58,0.45 0.86,1.12 0.86,2.02l0 0.06zm24.77 12.39l0 -18.9 -4.11 0 0 11.64 -8.85 -11.64 -3.84 0 0 18.9 4.11 0 0 -12.01 9.15 12.01 3.54 0zm31.54 0l0 -18.9 -4.48 0 -4.97 7.99 -4.97 -7.99 -4.48 0 0 18.9 4.1 0 0 -12.26 5.27 8 0.11 0 5.32 -8.08 0 12.34 4.1 0zm23.8 -9.45l0 -0.05c0,-1.35 -0.25,-2.62 -0.75,-3.8 -0.49,-1.18 -1.18,-2.2 -2.08,-3.08 -0.89,-0.87 -1.94,-1.56 -3.17,-2.08 -1.22,-0.51 -2.56,-0.76 -4.02,-0.76 -1.46,0 -2.81,0.25 -4.04,0.76 -1.23,0.52 -2.3,1.22 -3.19,2.11 -0.89,0.89 -1.59,1.93 -2.09,3.11 -0.5,1.18 -0.76,2.44 -0.76,3.79l0 0.06c0,1.35 0.25,2.61 0.75,3.79 0.49,1.18 1.18,2.21 2.08,3.08 0.89,0.87 1.94,1.57 3.17,2.08 1.22,0.51 2.56,0.77 4.02,0.77 1.46,0 2.81,-0.26 4.04,-0.77 1.23,-0.51 2.3,-1.22 3.19,-2.11 0.89,-0.89 1.59,-1.92 2.09,-3.1 0.5,-1.18 0.76,-2.45 0.76,-3.8zm-4.35 0.06c0,0.81 -0.14,1.57 -0.42,2.28 -0.28,0.71 -0.67,1.33 -1.16,1.87 -0.5,0.54 -1.1,0.97 -1.8,1.27 -0.7,0.31 -1.47,0.46 -2.29,0.46 -0.85,0 -1.62,-0.15 -2.31,-0.47 -0.7,-0.31 -1.3,-0.74 -1.81,-1.28 -0.51,-0.54 -0.91,-1.17 -1.19,-1.89 -0.28,-0.72 -0.42,-1.49 -0.42,-2.3l0 -0.05c0,-0.81 0.14,-1.57 0.42,-2.28 0.28,-0.72 0.67,-1.34 1.16,-1.88 0.5,-0.54 1.09,-0.96 1.78,-1.27 0.7,-0.31 1.47,-0.46 2.31,-0.46 0.83,0 1.6,0.16 2.3,0.47 0.7,0.32 1.31,0.75 1.82,1.29 0.51,0.54 0.91,1.17 1.19,1.89 0.28,0.72 0.42,1.48 0.42,2.29l0 0.06zm24.39 9.39l-4.62 -6.75c1.2,-0.45 2.18,-1.15 2.93,-2.12 0.74,-0.96 1.12,-2.21 1.12,-3.74l0 -0.05c0,-1.96 -0.63,-3.5 -1.88,-4.59 -1.25,-1.1 -3,-1.65 -5.25,-1.65l-8.64 0 0 18.9 4.16 0 0 -6.05 3.26 0 4.05 6.05 4.87 0zm-4.78 -12.39c0,0.81 -0.28,1.46 -0.83,1.94 -0.55,0.49 -1.34,0.73 -2.36,0.73l-4.21 0 0 -5.43 4.13 0c1.02,0 1.82,0.23 2.4,0.68 0.58,0.45 0.87,1.12 0.87,2.02l0 0.06zm22.33 12.39l0 -3.7 -10.26 0 0 -3.97 8.91 0 0 -3.7 -8.91 0 0 -3.83 10.12 0 0 -3.7 -14.23 0 0 18.9 14.37 0z" fill="#0160aa" fill-rule="nonzero"/></g><g id="change1_2"><path d="M260.75 31.59l9.81 9.81 -9.81 9.81c-1.18,1.19 -1.18,3.11 0,4.29 1.19,1.19 3.11,1.19 4.3,0l11.95 -11.95c1.19,-1.19 1.19,-3.11 0,-4.3l-11.95 -11.95c-1.19,-1.19 -3.11,-1.19 -4.3,0 -1.18,1.18 -1.18,3.11 0,4.29zm14.59 0l9.81 9.81 -9.81 9.81c-1.19,1.19 -1.19,3.11 0,4.29 1.19,1.19 3.11,1.19 4.29,0l11.96 -11.95c1.19,-1.19 1.19,-3.11 0,-4.3l-11.96 -11.95c-1.18,-1.19 -3.1,-1.19 -4.29,0 -1.19,1.18 -1.19,3.11 0,4.29z" fill="#ffffff"/></g></g></g></svg>